HIERARCHY
ROOT hip
{
  OFFSET 0 0 0
  CHANNELS 6 Xposition Yposition Zposition Zrotation Yrotation Xrotation
  JOINT abdomen
  {
    OFFSET 0 20.6881 -0.73152
    CHANNELS 3 Zrotation Xrotation Yrotation
    JOINT chest
    {
      OFFSET 0 11.7043 -0.48768
      CHANNELS 3 Zrotation Xrotation Yrotation
      JOINT neck
      {
        OFFSET 0 22.1894 -2.19456
        CHANNELS 3 Zrotation Xrotation Yrotation
        JOINT head
        {
          OFFSET -0.24384 7.07133 1.2192
          CHANNELS 3 Zrotation Xrotation Yrotation
          JOINT leftEye
          {
            OFFSET 4.14528 8.04674 8.04672
            CHANNELS 3 Zrotation Xrotation Yrotation
            End Site
            {
              OFFSET 1 0 0
            }
          }
          JOINT rightEye
          {
            OFFSET -3.6576 8.04674 8.04672
            CHANNELS 3 Zrotation Xrotation Yrotation
            End Site
            {
              OFFSET 1 0 0
            }
          }
        }
      }
      JOINT rCollar
      {
        OFFSET -2.68224 19.2634 -4.8768
        CHANNELS 3 Zrotation Xrotation Yrotation
        JOINT rShldr
        {
          OFFSET -8.77824 -1.95073 1.46304
          CHANNELS 3 Zrotation Xrotation Yrotation
          JOINT rForeArm
          {
            OFFSET -28.1742 -1.7115 0.48768
            CHANNELS 3 Zrotation Xrotation Yrotation
            JOINT rHand
            {
              OFFSET -22.5879 0.773209 7.07136
              CHANNELS 3 Zrotation Xrotation Yrotation
              JOINT rThumb1
              {
                OFFSET -1.2192 -0.487915 3.41376
                CHANNELS 3 Zrotation Xrotation Yrotation
                JOINT rThumb2
                {
                  OFFSET -3.37035 -0.52449 3.41376
                  CHANNELS 3 Zrotation Xrotation Yrotation
                  End Site
                  {
                    OFFSET -1.78271 -1.18214 1.43049
                  }
                }
              }
              JOINT rIndex1
              {
                OFFSET -7.75947 0.938293 5.60832
                CHANNELS 3 Zrotation Xrotation Yrotation
                JOINT rIndex2
                {
                  OFFSET -2.54057 -0.884171 1.56538
                  CHANNELS 3 Zrotation Xrotation Yrotation
                  End Site
                  {
                    OFFSET -1.62519 -0.234802 1.16502
                  }
                }
              }
              JOINT rMid1
              {
                OFFSET -8.24714 1.18213 3.41376
                CHANNELS 3 Zrotation Xrotation Yrotation
                JOINT rMid2
                {
                  OFFSET -3.10165 -0.590103 1.0647
                  CHANNELS 3 Zrotation Xrotation Yrotation
                  End Site
                  {
                    OFFSET -2.48547 -0.328903 0.83742
                  }
                }
              }
              JOINT rRing1
              {
                OFFSET -8.82822 0.546677 1.51678
                CHANNELS 3 Zrotation Xrotation Yrotation
                JOINT rRing2
                {
                  OFFSET -2.60934 -0.819778 -0.0198488
                  CHANNELS 3 Zrotation Xrotation Yrotation
                  End Site
                  {
                    OFFSET -2.33842 -0.294052 0.168128
                  }
                }
              }
              JOINT rPinky1
              {
                OFFSET -8.27202 -0.0477905 -0.4584
                CHANNELS 3 Zrotation Xrotation Yrotation
                JOINT rPinky2
                {
                  OFFSET -1.82734 -0.647385 -0.700984
                  CHANNELS 3 Zrotation Xrotation Yrotation
                  End Site
                  {
                    OFFSET -1.69225 -0.51767 -0.607171
                  }
                }
              }
            }
          }
        }
      }
      JOINT lCollar
      {
        OFFSET 2.68224 19.2634 -4.8768
        CHANNELS 3 Zrotation Xrotation Yrotation
        JOINT lShldr
        {
          OFFSET 8.77824 -1.95073 1.46304
          CHANNELS 3 Zrotation Xrotation Yrotation
          JOINT lForeArm
          {
            OFFSET 28.1742 -1.7115 0.48768
            CHANNELS 3 Zrotation Xrotation Yrotation
            JOINT lHand
            {
              OFFSET 22.5879 0.773209 7.07136
              CHANNELS 3 Zrotation Xrotation Yrotation
              JOINT lThumb1
              {
                OFFSET 1.2192 -0.487915 3.41376
                CHANNELS 3 Zrotation Xrotation Yrotation
                JOINT lThumb2
                {
                  OFFSET 3.37035 -0.52449 3.41376
                  CHANNELS 3 Zrotation Xrotation Yrotation
                  End Site
                  {
                    OFFSET 1.78271 -1.18214 1.43049
                  }
                }
              }
              JOINT lIndex1
              {
                OFFSET 7.75947 0.938293 5.60832
                CHANNELS 3 Zrotation Xrotation Yrotation
                JOINT lIndex2
                {
                  OFFSET 2.54057 -0.884171 1.56538
                  CHANNELS 3 Zrotation Xrotation Yrotation
                  End Site
                  {
                    OFFSET 1.62519 -0.234802 1.16502
                  }
                }
              }
              JOINT lMid1
              {
                OFFSET 8.24714 1.18213 3.41376
                CHANNELS 3 Zrotation Xrotation Yrotation
                JOINT lMid2
                {
                  OFFSET 3.10165 -0.590103 1.0647
                  CHANNELS 3 Zrotation Xrotation Yrotation
                  End Site
                  {
                    OFFSET 2.48547 -0.328903 0.83742
                  }
                }
              }
              JOINT lRing1
              {
                OFFSET 8.82822 0.546677 1.51678
                CHANNELS 3 Zrotation Xrotation Yrotation
                JOINT lRing2
                {
                  OFFSET 2.60934 -0.819778 -0.0198488
                  CHANNELS 3 Zrotation Xrotation Yrotation
                  End Site
                  {
                    OFFSET 2.33842 -0.294052 0.168128
                  }
                }
              }
              JOINT lPinky1
              {
                OFFSET 8.27202 -0.0477905 -0.4584
                CHANNELS 3 Zrotation Xrotation Yrotation
                JOINT lPinky2
                {
                  OFFSET 1.82734 -0.647385 -0.700984
                  CHANNELS 3 Zrotation Xrotation Yrotation
                  End Site
                  {
                    OFFSET 1.69225 -0.51767 -0.607171
                  }
                }
              }
            }
          }
        }
      }
    }
  }
  JOINT rButtock
  {
    OFFSET -8.77824 4.35084 1.2192
    CHANNELS 3 Zrotation Xrotation Yrotation
    JOINT rThigh
    {
      OFFSET 0 -1.70687 -2.19456
      CHANNELS 3 Zrotation Xrotation Yrotation
      JOINT rShin
      {
        OFFSET 0 -36.8199 0.73152
        CHANNELS 3 Zrotation Xrotation Yrotation
        JOINT rFoot
        {
          OFFSET 0.73152 -45.1104 -5.12064
          CHANNELS 3 Zrotation Xrotation Yrotation
          End Site
          {
            OFFSET -1.1221 -3.69964 12.103
          }
        }
      }
    }
  }
  JOINT lButtock
  {
    OFFSET 8.77824 4.35084 1.2192
    CHANNELS 3 Zrotation Xrotation Yrotation
    JOINT lThigh
    {
      OFFSET 0 -1.70687 -2.19456
      CHANNELS 3 Zrotation Xrotation Yrotation
      JOINT lShin
      {
        OFFSET 0 -36.8199 0.73152
        CHANNELS 3 Zrotation Xrotation Yrotation
        JOINT lFoot
        {
          OFFSET -0.73152 -45.1104 -5.12064
          CHANNELS 3 Zrotation Xrotation Yrotation
          End Site
          {
            OFFSET 1.1221 -3.69964 12.103
          }
        }
      }
    }
  }
}
MOTION
Frames:	6
Frame Time:	0.03333
0.006749999738531187 64.38429951667786 -0.08099999977275729 169.25299072265625 -24.203805923461914 -169.35797119140625 -19.151098251342773 6.076071262359619 3.8465890884399414 4.804666519165039 -8.962909698486328 1.1069163084030151 -8.379769325256348 16.333494186401367 -12.533798217773438 10.901087760925293 -24.547000885009766 -22.536407470703125 -0.0 0.0 -0.0 -0.0 0.0 -0.0 -0.0 0.0 -0.0 30.527706146240234 -21.29880142211914 65.01860046386719 -8.404733657836914 -3.2255542278289795 14.841593742370605 -1.467199444770813 32.055152893066406 5.053736686706543 -0.0 0.0 -0.0 -0.0 0.0 -0.0 -0.0 0.0 -0.0 7.730876445770264 5.474895000457764 0.41732463240623474 -0.0 0.0 -0.0 2.9054994583129883 0.9650753736495972 0.10300876200199127 -0.0 0.0 -0.0 10.278595924377441 0.7317469120025635 0.026285577565431595 -0.0 0.0 -0.0 2.221662759780884 -0.7335850596427917 -0.20831839740276337 -0.0 0.0 -0.0 -111.4179916381836 51.6072998046875 47.115692138671875 28.236900329589844 -38.90030288696289 -81.973388671875 8.863362312316895 -61.26192855834961 14.875191688537598 -0.0 0.0 -0.0 -0.0 0.0 -0.0 -0.0 0.0 -0.0 -7.730876445770264 5.474895000457764 -0.41732463240623474 -0.0 0.0 -0.0 -2.9054994583129883 0.9650753736495972 -0.10300876200199127 -0.0 0.0 -0.0 -10.278595924377441 0.7317469120025635 -0.026285577565431595 -0.0 0.0 -0.0 -2.221662759780884 -0.7335850596427917 0.20831839740276337 -0.0 0.0 -0.0 -73.77067565917969 -63.18297576904297 -64.66697692871094 -3.273827314376831 76.24244689941406 4.043728828430176 1.7523740530014038 -2.9040913581848145 14.628596305847168 -0.0 0.0 -0.0 4.684869289398193 10.942219734191895 2.080824851989746 -0.1505795568227768 30.683000564575195 -2.243567705154419 14.182389259338379 -13.84650707244873 38.39400100708008
0.013279999984661117 64.34879899024963 -0.1445000001695007 169.34898376464844 -24.091398239135742 -169.52598571777344 -19.202484130859375 6.247589588165283 3.863670825958252 4.865925312042236 -8.962040901184082 1.1056017875671387 -8.37415599822998 16.36759376525879 -12.492995262145996 10.843993186950684 -24.579999923706055 -22.46780014038086 -0.0 0.0 -0.0 -0.0 0.0 -0.0 -0.0 0.0 -0.0 30.32599639892578 -21.19000244140625 65.00699615478516 -8.43603229522705 -3.2437047958374023 14.899602890014648 -1.4699962139129639 32.08205795288086 5.058981418609619 -0.0 0.0 -0.0 -0.0 0.0 -0.0 -0.0 0.0 -0.0 7.730876445770264 5.474895000457764 0.41732463240623474 -0.0 0.0 -0.0 2.9054994583129883 0.9650753736495972 0.10300876200199127 -0.0 0.0 -0.0 10.278595924377441 0.7317469120025635 0.026285577565431595 -0.0 0.0 -0.0 2.221662759780884 -0.7335850596427917 -0.20831839740276337 -0.0 0.0 -0.0 -111.68797302246094 51.812095642089844 47.35668182373047 28.253995895385742 -38.76079559326172 -81.72869873046875 8.997666358947754 -61.57050323486328 15.046602249145508 -0.0 0.0 -0.0 -0.0 0.0 -0.0 -0.0 0.0 -0.0 -7.730876445770264 5.474895000457764 -0.41732463240623474 -0.0 0.0 -0.0 -2.9054994583129883 0.9650753736495972 -0.10300876200199127 -0.0 0.0 -0.0 -10.278595924377441 0.7317469120025635 -0.026285577565431595 -0.0 0.0 -0.0 -2.221662759780884 -0.7335850596427917 0.20831839740276337 -0.0 0.0 -0.0 -73.62230682373047 -63.08290100097656 -64.56439208984375 -3.3247146606445312 76.42034912109375 4.1041259765625 1.7828692197799683 -2.960160493850708 14.667801856994629 -0.0 0.0 -0.0 4.681620121002197 11.294890403747559 2.155120611190796 -0.15244445204734802 30.569299697875977 -2.2417235374450684 14.095805168151855 -13.780197143554688 38.35499572753906
0.026550000620773062 64.31840062141418 -0.19539999775588512 169.4110107421875 -23.94260025024414 -169.67800903320312 -19.163196563720703 6.3795247077941895 3.932476043701172 4.885076999664307 -8.971181869506836 1.1224710941314697 -8.353340148925781 16.389890670776367 -12.43659782409668 10.766602516174316 -24.617494583129883 -22.370697021484375 -0.0 0.0 -0.0 -0.0 0.0 -0.0 -0.0 0.0 -0.0 30.136402130126953 -21.12189483642578 64.97869873046875 -8.476285934448242 -3.2655909061431885 14.97360610961914 -1.4588215351104736 31.911300659179688 5.027426242828369 -0.0 0.0 -0.0 -0.0 0.0 -0.0 -0.0 0.0 -0.0 7.730876445770264 5.474895000457764 0.41732463240623474 -0.0 0.0 -0.0 2.9054994583129883 0.9650753736495972 0.10300876200199127 -0.0 0.0 -0.0 10.278595924377441 0.7317469120025635 0.026285577565431595 -0.0 0.0 -0.0 2.221662759780884 -0.7335850596427917 -0.20831839740276337 -0.0 0.0 -0.0 -111.71800231933594 51.98289489746094 47.43000411987305 28.195600509643555 -39.26710510253906 -82.58919525146484 10.566584587097168 -64.09015655517578 16.80695343017578 -0.0 0.0 -0.0 -0.0 0.0 -0.0 -0.0 0.0 -0.0 -7.730876445770264 5.474895000457764 -0.41732463240623474 -0.0 0.0 -0.0 -2.9054994583129883 0.9650753736495972 -0.10300876200199127 -0.0 0.0 -0.0 -10.278595924377441 0.7317469120025635 -0.026285577565431595 -0.0 0.0 -0.0 -2.221662759780884 -0.7335850596427917 0.20831839740276337 -0.0 0.0 -0.0 -73.43991088867188 -63.10569763183594 -64.51630401611328 -3.355344772338867 76.53952026367188 4.14244270324707 1.7851349115371704 -2.966893434524536 14.618696212768555 -0.0 0.0 -0.0 4.7248854637146 11.512514114379883 2.3228137493133545 -0.15312761068344116 30.5625057220459 -2.244225263595581 14.067404747009277 -13.749394416809082 38.34270095825195
0.05191000163904391 64.29380178451538 -0.22099999769125134 169.50900268554688 -23.845808029174805 -169.8589630126953 -19.00800132751465 6.569885730743408 3.9977123737335205 4.8644914627075195 -9.0143461227417 1.1393418312072754 -8.34732437133789 16.38759422302246 -12.34909725189209 10.687708854675293 -24.628999710083008 -22.21149444580078 -0.0 0.0 -0.0 -0.0 0.0 -0.0 -0.0 0.0 -0.0 29.935897827148438 -21.05849838256836 64.9472885131836 -8.53662395477295 -3.298245429992676 15.0844087600708 -1.3912632465362549 31.62702178955078 4.960721969604492 -0.0 0.0 -0.0 -0.0 0.0 -0.0 -0.0 0.0 -0.0 7.730876445770264 5.474895000457764 0.41732463240623474 -0.0 0.0 -0.0 2.9054994583129883 0.9650753736495972 0.10300876200199127 -0.0 0.0 -0.0 10.278595924377441 0.7317469120025635 0.026285577565431595 -0.0 0.0 -0.0 2.221662759780884 -0.7335850596427917 -0.20831839740276337 -0.0 0.0 -0.0 -111.67999267578125 52.15010070800781 47.42139434814453 28.11119842529297 -39.781890869140625 -83.53179931640625 12.534904479980469 -66.62459564208984 18.974740982055664 -0.0 0.0 -0.0 -0.0 0.0 -0.0 -0.0 0.0 -0.0 -7.730876445770264 5.474895000457764 -0.41732463240623474 -0.0 0.0 -0.0 -2.9054994583129883 0.9650753736495972 -0.10300876200199127 -0.0 0.0 -0.0 -10.278595924377441 0.7317469120025635 -0.026285577565431595 -0.0 0.0 -0.0 -2.221662759780884 -0.7335850596427917 0.20831839740276337 -0.0 0.0 -0.0 -73.22450256347656 -63.13700866699219 -64.5221939086914 -3.394904375076294 76.64513397216797 4.182831764221191 1.768300175666809 -2.929668426513672 14.498798370361328 -0.0 0.0 -0.0 4.84741735458374 11.607498168945312 2.5117440223693848 -0.150889053940773 30.731000900268555 -2.2525501251220703 14.085307121276855 -13.742304801940918 38.337196350097656
0.09471000157645904 64.23329710960388 -0.22399999761546496 169.64698791503906 -23.789104461669922 -170.0469970703125 -18.69969367980957 6.876160621643066 4.026003837585449 4.7928996086120605 -9.125995635986328 1.1464781761169434 -8.407312393188477 16.348798751831055 -12.213001251220703 10.658907890319824 -24.552595138549805 -21.948997497558594 -0.0 0.0 -0.0 -0.0 0.0 -0.0 -0.0 0.0 -0.0 29.706201553344727 -20.991497039794922 64.910400390625 -8.606887817382812 -3.3361778259277344 15.214591979980469 -1.3722901344299316 31.282506942749023 4.898611068725586 -0.0 0.0 -0.0 -0.0 0.0 -0.0 -0.0 0.0 -0.0 7.730876445770264 5.474895000457764 0.41732463240623474 -0.0 0.0 -0.0 2.9054994583129883 0.9650753736495972 0.10300876200199127 -0.0 0.0 -0.0 10.278595924377441 0.7317469120025635 0.026285577565431595 -0.0 0.0 -0.0 2.221662759780884 -0.7335850596427917 -0.20831839740276337 -0.0 0.0 -0.0 -111.71601104736328 52.32879638671875 47.394996643066406 28.113094329833984 -39.760799407958984 -83.50029754638672 12.913299560546875 -67.05023193359375 19.38711166381836 -0.0 0.0 -0.0 -0.0 0.0 -0.0 -0.0 0.0 -0.0 -7.730876445770264 5.474895000457764 -0.41732463240623474 -0.0 0.0 -0.0 -2.9054994583129883 0.9650753736495972 -0.10300876200199127 -0.0 0.0 -0.0 -10.278595924377441 0.7317469120025635 -0.026285577565431595 -0.0 0.0 -0.0 -2.221662759780884 -0.7335850596427917 0.20831839740276337 -0.0 0.0 -0.0 -73.0379867553711 -63.11448287963867 -64.625 -3.4250402450561523 76.76155853271484 4.2092461585998535 1.7443264722824097 -2.826085329055786 14.387295722961426 -0.0 0.0 -0.0 5.065824031829834 11.53240966796875 2.6577889919281006 -0.143166184425354 31.179391860961914 -2.2692441940307617 14.164407730102539 -13.752095222473145 38.35130310058594
0.24538999641663395 64.17210102081299 -0.1890999967145035 169.9119873046875 -23.84281349182129 -170.3709716796875 -18.207504272460938 7.351889610290527 4.022659778594971 4.674362659454346 -9.276161193847656 1.1436055898666382 -8.456340789794922 16.248090744018555 -12.030707359313965 10.570199012756348 -24.46119499206543 -21.600202560424805 -0.0 0.0 -0.0 -0.0 0.0 -0.0 -0.0 0.0 -0.0 29.41481590270996 -20.871896743774414 64.88520050048828 -8.753737449645996 -3.4176783561706543 15.484306335449219 -1.3018757104873657 30.72980499267578 4.788022041320801 -0.0 0.0 -0.0 -0.0 0.0 -0.0 -0.0 0.0 -0.0 7.730876445770264 5.474895000457764 0.41732463240623474 -0.0 0.0 -0.0 2.9054994583129883 0.9650753736495972 0.10300876200199127 -0.0 0.0 -0.0 10.278595924377441 0.7317469120025635 0.026285577565431595 -0.0 0.0 -0.0 2.221662759780884 -0.7335850596427917 -0.20831839740276337 -0.0 0.0 -0.0 -111.6670150756836 52.49150466918945 47.21131134033203 28.143905639648438 -39.574092864990234 -83.16189575195312 12.731705665588379 -66.87406158447266 19.197919845581055 -0.0 0.0 -0.0 -0.0 0.0 -0.0 -0.0 0.0 -0.0 -7.730876445770264 5.474895000457764 -0.41732463240623474 -0.0 0.0 -0.0 -2.9054994583129883 0.9650753736495972 -0.10300876200199127 -0.0 0.0 -0.0 -10.278595924377441 0.7317469120025635 -0.026285577565431595 -0.0 0.0 -0.0 -2.221662759780884 -0.7335850596427917 0.20831839740276337 -0.0 0.0 -0.0 -72.66643524169922 -63.03361892700195 -64.72432708740234 -3.4752917289733887 76.89289855957031 4.2479352951049805 1.6843867301940918 -2.694258689880371 14.055595397949219 -0.0 0.0 -0.0 5.454689979553223 11.360296249389648 2.8187496662139893 -0.13222068548202515 31.857086181640625 -2.293132781982422 14.278510093688965 -13.787189483642578 38.33749771118164
